<svg width="14" height="15" viewBox="0 0 14 15" fill="none" xmlns="http://www.w3.org/2000/svg">
<path d="M6.99935 1.66666C3.78518 1.66666 1.16602 4.28582 1.16602 7.49999C1.16602 10.7142 3.78518 13.3333 6.99935 13.3333C10.2135 13.3333 12.8327 10.7142 12.8327 7.49999C12.8327 4.28582 10.2135 1.66666 6.99935 1.66666ZM9.78768 6.15832L6.48018 9.46582C6.39852 9.54749 6.28768 9.59416 6.17102 9.59416C6.05435 9.59416 5.94352 9.54749 5.86185 9.46582L4.21102 7.81499C4.04185 7.64582 4.04185 7.36582 4.21102 7.19666C4.38018 7.02749 4.66018 7.02749 4.82935 7.19666L6.17102 8.53832L9.16935 5.53999C9.33852 5.37082 9.61852 5.37082 9.78768 5.53999C9.95685 5.70916 9.95685 5.98332 9.78768 6.15832Z" fill="white" fill-opacity="0.3"/>
</svg>
